<svg width="809" height="719" viewBox="0 0 809 719" fill="none" xmlns="http://www.w3.org/2000/svg">
<path d="M634.556 223.616C668.825 223.616 696.606 195.835 696.606 161.566C696.606 127.296 668.825 99.515 634.556 99.515C600.286 99.515 572.505 127.296 572.505 161.566C572.505 195.835 600.286 223.616 634.556 223.616Z" fill="#F2F2F2"/>
<path d="M634.555 115.906C636.495 115.906 638.068 114.333 638.068 112.394C638.068 110.454 636.495 108.881 634.555 108.881C632.616 108.881 631.043 110.454 631.043 112.394C631.043 114.333 632.616 115.906 634.555 115.906Z" fill="black" fill-opacity="0.1"/>
<path d="M585.383 165.078C587.323 165.078 588.896 163.506 588.896 161.566C588.896 159.626 587.323 158.053 585.383 158.053C583.443 158.053 581.871 159.626 581.871 161.566C581.871 163.506 583.443 165.078 585.383 165.078Z" fill="black" fill-opacity="0.1"/>
<path d="M683.728 165.078C685.667 165.078 687.24 163.506 687.24 161.566C687.24 159.626 685.667 158.053 683.728 158.053C681.788 158.053 680.215 159.626 680.215 161.566C680.215 163.506 681.788 165.078 683.728 165.078Z" fill="black" fill-opacity="0.1"/>
<path d="M634.555 214.25C636.495 214.25 638.068 212.678 638.068 210.738C638.068 208.798 636.495 207.226 634.555 207.226C632.616 207.226 631.043 208.798 631.043 210.738C631.043 212.678 632.616 214.25 634.555 214.25Z" fill="black" fill-opacity="0.1"/>
<path fill-rule="evenodd" clip-rule="evenodd" d="M634.556 119.418L636.897 160.395H632.214L634.556 119.418Z" fill="#AFB9C5"/>
<path fill-rule="evenodd" clip-rule="evenodd" d="M655.276 182.287L633.752 164.074L637.063 160.762L655.276 182.287Z" fill="#AFB9C5"/>
<path d="M634.556 166.249C637.142 166.249 639.239 164.152 639.239 161.566C639.239 158.979 637.142 156.883 634.556 156.883C631.969 156.883 629.872 158.979 629.872 161.566C629.872 164.152 631.969 166.249 634.556 166.249Z" fill="#C5CFD6"/>
<g opacity="0.345889">
<path fill-rule="evenodd" clip-rule="evenodd" d="M568.751 487.49C560.679 397.284 127.572 223.177 47.1669 308.618C-33.2379 394.059 44.0613 554.411 212.56 595.472C381.059 636.534 576.823 577.696 568.751 487.49Z" fill="#F2F2F2"/>
<path fill-rule="evenodd" clip-rule="evenodd" d="M301.056 546.102C308.287 469.468 696.246 321.557 768.269 394.143C840.292 466.729 822.062 619.405 671.128 654.288C520.194 689.172 293.825 622.735 301.056 546.102Z" fill="#DDE3E9"/>
</g>
<path d="M68.4898 245.479C95.9702 245.479 118.247 233.685 118.247 219.136C118.247 204.588 95.9702 192.794 68.4898 192.794C41.0095 192.794 18.7322 204.588 18.7322 219.136C18.7322 233.685 41.0095 245.479 68.4898 245.479Z" fill="#F2F2F2"/>
<path fill-rule="evenodd" clip-rule="evenodd" d="M126.443 237.283C126.443 204.954 100.496 178.745 68.4899 178.745C36.4833 178.745 10.5369 204.954 10.5369 237.283" fill="#DDE3E9"/>
<path fill-rule="evenodd" clip-rule="evenodd" d="M65.563 0H71.4168V187.323H65.563V0Z" fill="#DDE3E9"/>
<g opacity="0.7">
<path d="M159.224 186.152C179.765 186.152 196.417 176.634 196.417 164.893C196.417 153.152 179.765 143.635 159.224 143.635C138.683 143.635 122.032 153.152 122.032 164.893C122.032 176.634 138.683 186.152 159.224 186.152Z" fill="#F2F2F2"/>
<path fill-rule="evenodd" clip-rule="evenodd" d="M202.543 179.538C202.543 153.447 183.148 132.297 159.224 132.297C135.3 132.297 115.906 153.447 115.906 179.538" fill="#DDE3E9"/>
<path fill-rule="evenodd" clip-rule="evenodd" d="M156.883 0H162.737V159.224H156.883V0Z" fill="#DDE3E9"/>
</g>
<path d="M664.996 274.235L686.734 252.483C690.391 248.824 696.322 248.823 699.98 252.48L699.983 252.483L757.857 310.386C761.368 313.898 763.34 318.662 763.34 323.629V707.143" stroke="#CBCBCB" stroke-width="4.89332"/>
<path d="M793.78 705.973H731.729C729.79 705.973 728.217 707.545 728.217 709.485V710.656C728.217 712.596 729.79 714.168 731.729 714.168H793.78C795.72 714.168 797.292 712.596 797.292 710.656V709.485C797.292 707.545 795.72 705.973 793.78 705.973Z" fill="#AFB9C5"/>
<path fill-rule="evenodd" clip-rule="evenodd" d="M678.071 261.473C693.159 276.561 693.159 301.023 678.071 316.111L654.891 339.291L600.252 284.653L623.432 261.473C638.52 246.385 662.983 246.385 678.071 261.473Z" fill="#C5CFD6"/>
<path d="M623.115 316.724C638.203 331.812 652.843 341.634 655.815 338.662C658.787 335.69 648.965 321.05 633.877 305.962C618.789 290.874 604.149 281.052 601.177 284.024C598.205 286.995 608.027 301.636 623.115 316.724Z" fill="#F2F2F2"/>
<path fill-rule="evenodd" clip-rule="evenodd" d="M55.328 435.728C58.6818 435.318 62.2613 435.463 65.3801 436.787C72.0121 439.602 73.8973 447.437 73.8064 453.805C73.7083 460.659 72.2528 468.146 77.4639 473.669C79.8594 476.208 82.8392 478.151 85.1913 480.736C87.7047 483.499 89.6768 486.661 91.137 490.056C93.818 496.292 95.134 503.625 92.6823 510.167C90.5236 515.926 85.0926 521.124 86.2661 527.673C87.4902 534.505 94.3781 539.728 98.6844 544.817C103.558 550.576 108.045 557.936 108.782 565.488C109.489 572.725 106.339 580.045 101.504 585.516C91.844 596.448 77.3235 601.807 62.6823 601.774C56.4661 601.76 49.4281 601.479 44.0636 598.138C42.4057 597.106 41.531 595.947 40.5454 594.337C39.6617 592.893 38.4943 591.954 37.1431 590.932C34.1745 588.688 32.0307 585.663 30.6625 582.277C25.3497 569.126 29.596 552.857 37.0328 541.179C38.7949 538.412 40.2377 535.749 39.3816 532.451C38.4882 529.009 36.2926 525.904 34.3506 522.945C32.4316 520.02 30.2408 517.23 28.7409 514.068C27.17 510.755 26.7276 507.287 27.0052 503.661C27.5268 496.851 30.4665 490.567 34.6285 485.09C38.6373 479.815 43.3443 474.768 43.3548 467.855C43.3664 460.53 38.4687 454.013 40.5552 446.564C41.4191 443.48 43.1544 440.316 45.9509 438.467C48.6328 436.694 52.1739 436.113 55.328 435.728Z" fill="#DDE3E9"/>
<path fill-rule="evenodd" clip-rule="evenodd" d="M53.1367 447.44C53.1996 446.456 54.3667 445.866 55.2855 446.122C56.4948 446.46 56.4716 447.59 56.4396 448.597C56.3418 451.692 56.7897 454.699 57.5335 457.701C59.0795 463.944 61.9368 469.696 64.2005 475.692C66.4622 481.683 67.5239 487.869 66.1971 494.209C64.9463 500.187 62.9813 506.009 61.7012 511.995C60.5729 517.27 59.3724 522.832 61.0906 528.094C62.744 533.159 66.3993 537.284 69.0314 541.861C74.4802 551.335 76.8976 561.847 77.2209 572.663C77.3707 577.686 77.2358 582.755 76.0705 587.682C75.3998 590.518 74.4985 594.352 72.0677 596.311C70.9468 597.214 69.0297 597.526 68.0863 596.188C67.2006 594.934 67.9776 592.992 68.2588 591.655C69.4765 585.867 69.7215 579.953 69.43 574.076C69.1478 568.383 68.4752 562.701 66.6837 557.264C65.0209 552.219 62.4948 547.687 59.5217 543.274C56.4921 538.776 53.3426 534.269 52.0908 528.94C50.819 523.527 51.8522 518.02 53.2338 512.711C54.6949 507.095 56.6087 501.641 58.5873 496.177C60.5154 490.853 61.1988 485.816 60.1344 480.244C58.0317 469.236 52.4034 458.903 53.1367 447.44Z" fill="#C5CFD6"/>
<path fill-rule="evenodd" clip-rule="evenodd" d="M143.878 449.085C148.028 450.345 152.15 452.379 155.109 455.567C161.399 462.346 159.469 472.593 155.997 480.077C152.259 488.132 146.594 496.228 149.787 505.47C151.255 509.719 153.723 513.567 155.115 517.849C156.603 522.424 157.245 527.189 157.163 531.964C157.012 540.733 154.679 550.09 148.346 556.551C142.77 562.239 133.652 565.562 131.567 573.917C129.391 582.633 134.71 592.394 137.071 600.652C139.743 609.998 141.116 621.036 137.989 630.351C134.992 639.278 127.428 646.296 118.866 650.251C101.757 658.154 81.8936 656.938 64.7385 649.282C57.4551 646.031 49.3486 642.037 44.8223 635.296C43.4234 633.213 43.0098 631.388 42.7049 628.97C42.4316 626.803 41.5589 625.085 40.5141 623.174C38.2185 618.975 37.3027 614.283 37.4877 609.567C38.2074 591.25 51.7873 574.219 66.6825 564.276C70.2118 561.921 73.3112 559.523 74.0503 555.177C74.8221 550.641 73.888 545.827 73.1743 541.317C72.4693 536.86 71.3744 532.421 71.2866 527.901C71.195 523.166 72.5096 518.834 74.7514 514.691C78.9627 506.909 85.7323 501.006 93.5087 496.694C100.999 492.541 109.188 489.02 112.853 480.851C116.739 472.194 114.439 461.939 120.823 454.216C123.467 451.018 127.175 448.178 131.432 447.446C135.515 446.744 139.975 447.9 143.878 449.085Z" fill="#DDE3E9"/>
<path fill-rule="evenodd" clip-rule="evenodd" d="M135.401 463.402C135.99 462.27 137.663 462.183 138.603 462.969C139.84 464.003 139.221 465.329 138.657 466.504C136.922 470.118 135.87 473.914 135.168 477.859C133.706 486.062 134.035 494.371 133.541 502.659C133.048 510.939 131.05 518.821 126.178 525.634C121.585 532.057 116.238 537.923 111.606 544.339C107.524 549.995 103.207 555.953 102.46 563.085C101.741 569.95 103.855 576.75 104.536 583.55C105.945 597.626 103.267 611.341 97.9796 624.32C95.5242 630.347 92.7116 636.279 88.7689 641.502C86.4991 644.51 83.4374 648.578 79.5694 649.623C77.7857 650.105 75.3805 649.47 74.9778 647.391C74.599 645.442 76.5247 643.549 77.5537 642.113C82.0088 635.898 85.393 629.021 88.1299 621.909C90.7812 615.02 92.971 607.938 93.7234 600.561C94.4213 593.714 93.8408 587.024 92.6758 580.239C91.4888 573.325 90.1666 566.337 91.4939 559.37C92.8414 552.293 96.934 546.313 101.33 540.75C105.98 534.865 111.074 529.409 116.249 523.976C121.292 518.682 124.729 513.075 126.403 505.918C129.709 491.78 128.539 476.594 135.401 463.402Z" fill="#C5CFD6"/>
<path fill-rule="evenodd" clip-rule="evenodd" d="M15.5782 501.088C22.479 501.088 28.546 504.746 32.7266 509.937C37.6203 516.013 38.6086 523.434 40.5958 530.676C41.5846 534.28 43.2853 537.858 46.2656 540.306C48.9764 542.533 52.4177 542.979 55.6624 544.067C62.1469 546.241 67.3831 551.479 69.451 557.87C71.9738 565.666 69.3017 573.527 69.7618 581.428C70.1842 588.684 77.3381 593.21 83.0938 596.688C88.7693 600.118 93.8822 603.329 95.5916 610.01C97.4042 617.097 98.0124 625.006 95.5017 632.007C91.3216 643.663 79.0882 648.795 67.2676 649.591C56.54 650.313 43.0513 649.179 34.995 641.393C30.1742 636.733 28.4284 630.216 28.645 623.732C28.7796 619.7 29.5782 615.705 30.6109 611.809C31.3427 609.048 32.3316 606.298 32.6133 603.444C33.362 595.853 26.3453 594.394 20.3725 592.31C12.7828 589.661 7.46934 584.657 3.77454 577.686C0.333671 571.195 -1.11004 563.909 0.952655 556.763C2.00614 553.114 3.91692 549.803 6.50831 546.988C7.64905 545.748 9.25684 544.715 10.2865 543.412C11.2475 542.196 11.0383 540.621 10.7071 539.197C9.17567 532.618 4.40438 527.17 2.69805 520.603C1.15754 514.675 2.06821 507.298 7.48757 503.474C9.82895 501.822 12.7164 501.106 15.5782 501.088Z" fill="#C5CFD6"/>
<path fill-rule="evenodd" clip-rule="evenodd" d="M24.9815 518.23C32.2956 526.021 34.2837 536.592 34.8672 546.837C35.194 552.583 34.8538 558.642 36.5417 564.215C37.986 568.985 41.3718 572.631 44.8618 576.077C51.887 583.013 59.7217 590.065 61.7766 600.104C62.9822 605.996 62.1684 612.081 63.8344 617.908C65.3492 623.204 68.0164 628.407 71.2605 632.88C73.8725 636.481 77.2755 639.238 80.1308 642.596C81.0019 643.62 82.2498 645.129 81.8903 646.576C81.4696 648.27 79.3114 648.806 77.7802 648.54C74.2101 647.92 71.205 644.511 68.8707 642.033C65.4573 638.409 62.5568 634.511 60.1993 630.138C57.5821 625.283 55.4748 620.13 54.5744 614.683C53.64 609.031 54.105 603.141 51.9714 597.718C48.3811 588.591 39.6726 583.206 33.3764 576.093C25.5318 567.229 26.7017 556.198 27.5052 545.295C27.9466 539.304 28.3853 532.537 25.3578 527.067C24.2021 524.979 21.6254 523.032 21.1285 520.658C20.6733 518.483 23.1574 516.286 24.9815 518.23Z" fill="#AFB9C5"/>
<path fill-rule="evenodd" clip-rule="evenodd" d="M32.7815 646.264C32.7819 690.821 40.0534 714.168 78.4415 714.168C116.83 714.168 124.101 690.821 124.101 646.264H32.7815Z" fill="#89C5CC"/>
<path d="M232.983 581.871H193.176C191.883 581.871 190.835 582.92 190.835 584.213V590.067C190.835 591.36 191.883 592.408 193.176 592.408H232.983C234.276 592.408 235.324 591.36 235.324 590.067V584.213C235.324 582.92 234.276 581.871 232.983 581.871Z" fill="#AFB9C5"/>
<path fill-rule="evenodd" clip-rule="evenodd" d="M202.543 547.919C207.569 531.628 210.385 514.457 210.992 496.405H214.25H216.338C216.945 514.457 219.761 531.628 224.787 547.919H232.397C242.419 547.919 250.544 556.044 250.544 566.066C250.544 576.088 242.419 584.213 232.397 584.213H193.762C183.74 584.213 175.615 576.088 175.615 566.066C175.615 556.044 183.74 547.919 193.762 547.919H202.543Z" fill="#DDE3E9"/>
<path fill-rule="evenodd" clip-rule="evenodd" d="M171.66 415.246C185.077 413.936 198.493 413.281 211.909 413.281C225.325 413.281 238.741 413.936 252.157 415.246L257.569 508.269C242.349 509.726 227.129 510.455 211.909 510.455C196.689 510.455 181.469 509.726 166.249 508.269L171.66 415.246Z" fill="#C5CFD6"/>
<path fill-rule="evenodd" clip-rule="evenodd" d="M163.907 592.408H261.081H285.667V714.168H261.081V618.165H163.907V714.168H139.321V592.408H163.907Z" fill="#F2F2F2"/>
<path fill-rule="evenodd" clip-rule="evenodd" d="M629.148 384.255C639.489 408.828 657.069 425.902 666.379 451.453C671.9 466.606 674.202 483.081 674.342 499.955C674.417 509.12 674.258 518.291 674.215 527.456C674.173 536.394 673.93 545.274 673.172 554.155C672.409 563.083 671.556 571.904 671.179 580.887C670.886 587.886 670.752 596.027 668.38 602.411C666.493 607.488 661.698 608.232 660.426 602.074C659.719 598.651 659.808 594.829 659.886 591.311C659.986 586.798 660.248 582.291 660.382 577.778C660.92 559.669 660.223 541.556 660.587 523.44C660.944 505.74 663.219 488.059 660.701 470.477C658.622 455.957 653.341 443.489 647.272 431.537C641.433 420.037 635.077 408.817 631.131 395.736C629.998 391.979 629.122 388.086 628.702 384.047C628.885 383.961 629.034 384.031 629.148 384.255Z" fill="#C1DEE2"/>
<path fill-rule="evenodd" clip-rule="evenodd" d="M626.329 432.735C628.377 434.214 629.521 436.377 630.906 438.511C632.627 441.165 634.65 443.56 636.371 446.216C639.959 451.752 643.112 457.628 646.382 463.388C652.592 474.321 657.307 485.974 659.642 498.624C662.062 511.732 662.715 525.263 663.73 538.567C664.807 552.668 665.892 566.871 666.034 581.027C666.098 587.368 666.441 594.101 665.68 600.398C665.206 604.318 663.436 607.659 659.448 607.628C650.976 607.561 646.998 598.177 645.336 590.481C642.89 579.148 642.402 567.111 642.789 555.522C643.257 541.548 645.683 527.784 646.732 513.863C647.844 499.127 647.216 484.651 642.15 470.776C639.59 463.764 636.619 456.92 633.952 449.955C632.816 446.989 631.886 443.943 630.351 441.182C628.645 438.11 626.526 435.321 625.19 432.013C625.569 432.254 625.95 432.495 626.329 432.735Z" fill="#89C5CC"/>
<path fill-rule="evenodd" clip-rule="evenodd" d="M723.925 403.35C724.185 403.148 724.445 402.946 724.705 402.744C723.956 405.896 722.605 408.457 721.572 411.339C720.643 413.929 720.173 416.861 719.547 419.693C718.078 426.344 716.381 432.845 714.994 439.552C712.248 452.825 712.767 467.124 714.568 481.85C716.269 495.761 718.959 509.65 720.241 523.557C721.303 535.091 721.76 546.984 720.747 557.989C720.058 565.462 717.8 574.385 711.648 573.631C708.752 573.276 707.242 569.79 706.633 565.855C705.655 559.535 705.451 552.89 705.069 546.605C704.219 532.577 704.05 518.592 703.882 504.709C703.723 491.61 703.285 478.251 704.16 465.482C705.004 453.16 707.645 442.058 711.42 431.813C713.408 426.416 715.303 420.893 717.537 415.749C718.609 413.282 719.917 411.101 720.989 408.636C721.851 406.653 722.537 404.618 723.925 403.35Z" fill="#C1DEE2"/>
<path fill-rule="evenodd" clip-rule="evenodd" d="M628.946 473.343C630.067 471.462 632.533 477.665 632.908 478.445C632.749 478.057 632.59 477.67 632.429 477.282C634.653 480.98 636.687 484.829 637.952 489.069C639.204 493.266 640.279 497.548 641.453 501.775C643.657 509.706 646.499 517.412 648.496 525.414C650.441 533.212 650.932 540.878 650.461 548.943C649.971 557.326 649.672 565.838 650.243 574.217C650.516 578.218 651.816 581.946 652.707 585.798C653.599 589.654 654.302 593.562 655.357 597.37C655.599 596.874 655.63 598.533 655.629 598.659C655.623 599.61 655.49 600.408 655.184 601.31C654.397 603.63 652.926 605.601 650.686 606.241C646.64 607.397 642.882 603.716 641.577 599.829C639.705 594.252 638.674 588.089 637.782 582.227C636.964 576.852 636.77 571.444 637.013 565.995C637.492 555.248 639.437 544.643 639.963 533.9C640.535 522.204 638.218 511.214 636.278 499.829C635.343 494.343 634.45 488.909 632.631 483.683C631.895 481.567 630.935 479.699 629.928 477.745C629.356 476.633 628.197 474.649 628.946 473.343Z" fill="#C1DEE2"/>
<path fill-rule="evenodd" clip-rule="evenodd" d="M661.778 455.073C661.314 468.472 660.514 481.77 658.728 495.028C656.904 508.558 654.81 522.041 653.056 535.583C651.348 548.764 649.559 562.165 649.797 575.531C649.973 585.375 648.34 602.03 659.274 606.889C670.348 611.81 672.724 590.796 673.451 583.86C674.844 570.553 674.393 557.105 673.717 543.726C673.023 529.993 671.864 516.331 670.427 502.649C668.832 487.452 667.58 472.186 666.576 456.945C666.078 449.407 665.956 441.881 666.093 434.34C666.223 427.225 665.952 420.036 663.423 413.28C663.29 413.377 663.158 413.473 663.026 413.568" fill="#69A1AC"/>
<path fill-rule="evenodd" clip-rule="evenodd" d="M718.948 497.523C716.956 500.425 714.949 503.298 713.068 506.371C709.703 511.869 706.66 517.984 705.744 525.846C703.828 542.3 705.365 560.07 705.736 577.027C705.812 580.492 705.374 583.853 706.74 587.151C707.978 590.141 710.293 592.42 712.5 592.408C717.224 592.381 716.504 580.812 716.511 575.72C716.526 566.795 715.525 557.779 715.611 548.862C715.697 540.028 716.234 531.17 717.515 522.78C718.812 514.288 720.711 506.134 723.217 498.524C723.565 497.468 726.06 489.307 723.702 490.714" fill="#89C5CC"/>
<path fill-rule="evenodd" clip-rule="evenodd" d="M698.084 409.768C694.978 409.768 694.997 425.253 694.904 427.242C694.566 434.419 694.645 441.599 694.432 448.777C693.965 464.444 693.391 480.248 691.038 495.733C689.771 504.07 688.302 512.369 686.722 520.642C685.137 528.939 683.01 537.226 681.968 545.628C680.967 553.705 681.532 561.941 681.67 570.058C681.807 578.224 682.054 586.406 683.124 594.501C683.387 596.499 683.697 598.49 684.028 600.476C684.304 602.131 684.143 604.183 684.61 605.756C685.359 608.274 688.566 609.099 690.727 608.705C696.572 607.638 700.305 600.299 702.302 594.936C704.852 588.089 706.205 580.662 707.54 573.446C709.053 565.271 709.939 556.971 710.355 548.648C711.201 531.733 710.116 514.8 708.904 497.939C708.23 488.562 707.452 479.226 706.26 469.907C705.074 460.627 703.552 451.39 702.561 442.083C701.841 435.32 701.131 428.547 700.665 421.758C700.553 420.14 700.459 409.768 698.084 409.768Z" fill="#69A1AC"/>
<path fill-rule="evenodd" clip-rule="evenodd" d="M694.195 522.324C693.689 506.067 687.154 434.658 685.667 414.998C685.295 410.078 681.716 389.59 681.252 384.011C679.993 385.588 680.1 410.131 680.114 415.77C680.129 421.348 679.437 426.834 679.081 432.382C678.718 438.044 670.349 511.158 669.262 516.598C667.102 527.42 665.656 538.525 664.54 549.59C663.454 560.375 661.764 571.753 663.218 582.595C663.553 585.091 664.081 587.547 664.942 589.839C665.873 592.317 666.51 594.608 667.257 597.2C668.459 601.375 670.633 605.04 673.973 606.764C680.821 610.298 684.498 602.297 686.363 595.331C689.34 584.207 691.251 572.9 692.147 561.217C693.138 548.292 694.601 535.339 694.195 522.324Z" fill="#89C5CC"/>
<path d="M725.876 570.164H624.019C622.726 570.164 621.677 571.212 621.677 572.505V674.362C621.677 675.655 622.726 676.703 624.019 676.703H725.876C727.169 676.703 728.217 675.655 728.217 674.362V572.505C728.217 571.212 727.169 570.164 725.876 570.164Z" fill="white"/>
<path d="M619.336 581.871H612.311C611.018 581.871 609.97 582.92 609.97 584.213V711.826C609.97 713.12 611.018 714.168 612.311 714.168H619.336C620.629 714.168 621.677 713.12 621.677 711.826V584.213C621.677 582.92 620.629 581.871 619.336 581.871Z" fill="#C5CFD6"/>
<path d="M677.874 581.871H670.849C669.556 581.871 668.508 582.92 668.508 584.213V711.826C668.508 713.12 669.556 714.168 670.849 714.168H677.874C679.167 714.168 680.216 713.12 680.216 711.826V584.213C680.216 582.92 679.167 581.871 677.874 581.871Z" fill="#C5CFD6"/>
<path d="M737.583 581.871H730.559C729.265 581.871 728.217 582.92 728.217 584.213V711.826C728.217 713.12 729.265 714.168 730.559 714.168H737.583C738.876 714.168 739.925 713.12 739.925 711.826V584.213C739.925 582.92 738.876 581.871 737.583 581.871Z" fill="#C5CFD6"/>
<path fill-rule="evenodd" clip-rule="evenodd" d="M139.101 286.399C153.155 286.399 158.267 269.573 166.251 260.339C171.964 253.733 181.714 255.703 184.6 246.454C191.857 223.197 172.434 206.828 147.094 206.828C121.755 206.828 104.669 221.184 100.98 242.765C97.2912 264.346 113.762 286.399 139.101 286.399Z" fill="#191847"/>
<path fill-rule="evenodd" clip-rule="evenodd" d="M140.653 271.376C134.987 264.725 131.152 256.573 131.793 247.44C133.639 221.124 170.272 226.913 177.398 240.195C184.524 253.477 183.678 287.169 174.468 289.543C170.795 290.489 162.971 288.17 155.008 283.37L160.006 318.732H130.493L140.653 271.376Z" fill="#B28B67"/>
<path fill-rule="evenodd" clip-rule="evenodd" d="M153.095 254.446C152.023 253.879 150.794 253.557 149.488 253.557C145.307 253.557 141.917 256.86 141.917 260.935C141.917 262.598 142.482 264.133 143.435 265.367C141.641 268.324 140.416 271.43 140.015 274.624C133.797 274.624 111.105 251.098 133.711 228.963C156.317 206.828 188.985 238.427 179.169 240.269C173.525 241.329 162.158 246.717 153.095 254.446Z" fill="#191847"/>
<path fill-rule="evenodd" clip-rule="evenodd" d="M120.656 420.797L166.93 572.08L189.347 700.737H206.923L183.237 420.797H120.656Z" fill="#997659"/>
<path fill-rule="evenodd" clip-rule="evenodd" d="M104.101 420.797C107.244 503.86 103.545 546.705 102.842 554.252C102.138 561.798 92.5055 610.731 69.7012 703.271L88.43 696.838C124.47 611.966 136.751 567.856 140.885 556.711C145.018 545.566 155.997 500.261 173.82 420.797H104.101Z" fill="#B28B67"/>
<path fill-rule="evenodd" clip-rule="evenodd" d="M69.8419 696.745C68.4661 700.418 67.7783 703.166 67.7783 704.989C67.7783 707.207 68.1477 710.443 68.8865 714.697H138.244C140.047 708.738 139.006 705.521 135.123 705.046C131.24 704.571 128.014 704.142 125.445 703.759L93.2086 689.388C92.5883 689.112 91.8612 689.39 91.5847 690.011C91.58 690.021 91.5754 690.032 91.571 690.043L89.4988 695.069C85.904 696.746 82.9828 697.585 80.7353 697.585C78.9092 697.585 76.3874 696.848 73.1699 695.373C71.9351 694.807 70.4753 695.349 69.9093 696.583C69.8849 696.637 69.8624 696.691 69.8419 696.745Z" fill="#E4E4E4"/>
<path fill-rule="evenodd" clip-rule="evenodd" d="M185.434 696.745C184.058 700.418 183.371 703.166 183.371 704.989C183.371 707.207 183.74 710.443 184.479 714.697H253.836C255.639 708.738 254.598 705.521 250.715 705.046C246.832 704.571 243.606 704.142 241.038 703.759L208.801 689.388C208.181 689.112 207.454 689.39 207.177 690.011C207.172 690.021 207.168 690.032 207.163 690.043L205.091 695.069C201.496 696.746 198.575 697.585 196.328 697.585C194.502 697.585 191.98 696.848 188.762 695.373C187.527 694.807 186.068 695.349 185.502 696.583C185.477 696.637 185.455 696.691 185.434 696.745Z" fill="#E4E4E4"/>
<path fill-rule="evenodd" clip-rule="evenodd" d="M114.507 420.797L134.182 497.874H194.278L185.318 420.797H114.507Z" fill="#69A1AC"/>
<path fill-rule="evenodd" clip-rule="evenodd" d="M103.44 420.797C96.9659 440.202 95.7362 465.895 99.7506 497.874H161.076L177.94 420.797H103.44Z" fill="#89C5CC"/>
<path fill-rule="evenodd" clip-rule="evenodd" d="M228.924 401.272L263.759 435.255C273.895 439.579 282.2 444.353 288.674 449.577C290.129 451.333 291.714 454.698 284.865 453.192C278.015 451.687 270.742 450.411 269.455 452.638C268.167 454.866 271.961 458.279 269.581 461.195C267.995 463.138 262.661 456.956 253.578 442.649L217.354 421.292L228.924 401.272ZM74.3054 406.065L100.003 406.166C84.136 457.388 75.5701 484.566 74.3054 487.7C71.4599 494.752 77.4813 505.491 80.0563 511.263C71.6697 515.016 72.5633 501.118 61.9838 506.04C52.3272 510.532 44.9816 518.672 33.8249 511.788C32.4532 510.942 30.9501 507.755 34.5818 505.265C43.6297 499.061 56.6682 488.203 58.4299 484.629C60.8323 479.755 66.1242 453.567 74.3054 406.065Z" fill="#B28B67"/>
<path fill-rule="evenodd" clip-rule="evenodd" d="M147.334 298.235L157.967 296.411C176.275 342.144 208.237 383.698 253.855 421.074L219.384 462.953C173.771 409.735 145.656 354.829 147.334 298.235Z" fill="#191847"/>
<path fill-rule="evenodd" clip-rule="evenodd" d="M100.98 431.864H195.668C173.731 378.526 162.762 333.216 162.762 295.934L134.2 291.678C111.752 327.78 105.413 372.229 100.98 431.864Z" fill="#DDE3E9"/>
<path fill-rule="evenodd" clip-rule="evenodd" d="M133.595 291.698C133.599 291.691 133.603 291.685 133.606 291.678H135.471C137.702 291.755 141.1 291.893 145.665 292.093L152.567 311.817C153.297 335.864 157.56 384.327 165.357 457.204H103.287C103.45 462.237 103.718 467.317 104.092 472.445H57.9406C64.8441 394.56 90.0547 334.304 133.572 291.678L133.595 291.698Z" fill="#2F3676"/>
<path fill-rule="evenodd" clip-rule="evenodd" d="M107.387 392.801C109.154 424.176 113.577 445.806 120.656 457.688H103.303C102.544 435.115 103.905 413.485 107.387 392.801Z" fill="black" fill-opacity="0.1"/>
<path fill-rule="evenodd" clip-rule="evenodd" d="M117.103 419.567L147.709 405.339V419.567H117.103Z" fill="white" fill-opacity="0.2"/>
<path fill-rule="evenodd" clip-rule="evenodd" d="M575.957 251.622C579.884 243.363 581.553 234.085 578.431 225.025C569.436 198.922 533.972 214.697 530.366 230.054C526.761 245.412 536.743 279.241 546.695 279.146C550.665 279.108 557.946 274.644 564.696 267.635L569.221 304.735L599.055 296.741L575.957 251.622Z" fill="#D4A181"/>
<path fill-rule="evenodd" clip-rule="evenodd" d="M565.131 252.518C570.733 258.628 577.283 262.605 582.395 261.235C592.104 258.633 595.529 243.802 591.79 229.845C591.658 229.355 591.518 228.87 591.369 228.392C603.529 232.688 615.167 244.46 628.757 240.818C647.246 235.864 644.597 196.603 618.764 203.525C601.197 208.232 593.241 213.109 586.809 218.893C584.231 215.145 581.058 212.264 577.668 210.566C576.81 210.001 575.61 209.562 574.131 209.254C573.217 209.031 572.297 208.897 571.379 208.857C566.445 208.41 559.628 208.989 552.293 210.682C550.923 210.998 549.587 211.342 548.291 211.708C546.435 204.866 539.392 200.811 532.54 202.647C525.675 204.486 521.6 211.543 523.44 218.408C525.219 225.048 531.878 229.077 538.524 227.671C542.582 227.823 547.625 227.382 553.062 226.309C553.066 228.398 553.378 230.689 554.048 233.192C554.641 235.403 555.513 237.681 556.6 239.941C557.389 238.254 558.697 236.941 560.269 236.519C564.667 235.341 568.697 238.139 569.726 241.98C571.033 246.854 569.163 251.135 565.131 252.518Z" fill="#191847"/>
<path fill-rule="evenodd" clip-rule="evenodd" d="M637.11 410.51L589.968 572.958L567.795 694.926H545.54L567.755 410.51H637.11Z" fill="#BA8B72"/>
<path fill-rule="evenodd" clip-rule="evenodd" d="M658.297 410.51C655.007 494.901 656.304 540.93 657.041 548.597C657.777 556.264 661.956 607.615 690.437 697.5H667.289C629.572 611.27 616.405 559.92 612.079 548.597C607.753 537.274 594.976 491.245 576.323 410.51H658.297Z" fill="#D4A181"/>
<path fill-rule="evenodd" clip-rule="evenodd" d="M638.123 410.51C625.86 466.409 604.651 555.637 574.496 678.196H541.946C539.541 552.401 549.769 469.607 567.481 410.51H638.123Z" fill="#69A1AC"/>
<path fill-rule="evenodd" clip-rule="evenodd" d="M658.461 410.51C655.24 494.901 663.588 578.042 689.45 679.51H654.72C616.933 594.567 589.85 511.836 571.34 410.51H658.461Z" fill="#89C5CC"/>
<path fill-rule="evenodd" clip-rule="evenodd" d="M693.736 714.23L692.459 693.639C684.981 695.826 675.615 694.968 664.361 691.065C652.259 699.637 637.026 705.49 618.659 708.625C617.258 708.864 616.316 710.194 616.555 711.595C616.57 711.686 616.591 711.775 616.616 711.864L618.382 718.091H664.361H691.182L693.736 714.23Z" fill="#191847"/>
<path fill-rule="evenodd" clip-rule="evenodd" d="M572.763 714.23L571.486 693.639C564.008 695.826 554.642 694.968 543.387 691.065C531.286 699.637 516.052 705.49 497.686 708.625C496.284 708.864 495.342 710.193 495.581 711.595C495.597 711.686 495.617 711.775 495.642 711.864L497.408 718.091H543.387H570.208L572.763 714.23Z" fill="#191847"/>
<path fill-rule="evenodd" clip-rule="evenodd" d="M545.027 338.162L496.788 321.825C487.94 314.428 479.543 308.952 471.596 305.398C469.266 304.874 465.376 304.995 470.034 310.667C474.693 316.339 479.338 322.514 477.872 324.773C476.407 327.032 471.421 325.117 469.833 328.72C468.774 331.123 477.074 333.16 494.731 334.832L531.857 358.463L545.027 338.162ZM479.713 370.639L458.518 363.431C453.988 353.592 449.831 348.973 446.049 349.573C442.915 348.736 450.258 360.883 444.567 360.721C438.877 360.559 423.716 352.954 421.764 355.385C418.875 358.982 423.543 367.639 427.938 371.579C436.154 378.944 442.224 380.888 456.628 382.295C464.159 383.031 472.627 385.674 482.032 390.225L479.713 370.639Z" fill="#D4A181"/>
<path fill-rule="evenodd" clip-rule="evenodd" d="M565.505 329.017C550.068 331.571 528.947 331.94 504.568 321.889L499.344 342.608C517.113 354.95 540.551 363.532 559.052 359.731C573.632 356.736 577.995 337.692 565.505 329.017Z" fill="#2026A2"/>
<path fill-rule="evenodd" clip-rule="evenodd" d="M550.187 363.468C534.548 370.432 506.268 370.458 465.348 363.546C459.281 384.989 457.35 399.854 459.554 408.141C495.628 419.571 525.295 422.272 548.709 418.667C550.408 432.638 554.415 445.51 562.195 456.545C578.191 479.231 642.274 444.309 665.974 444.78C672.103 395.668 641.031 381.627 635.753 351.824C629.973 319.187 594.905 273.566 591.049 274.246L555.883 280.447C558.338 305.718 553.416 334.913 550.187 363.468Z" fill="#1F28CF"/>
</svg>
